<svg width="267" height="82" viewBox="0 0 267 82" fill="none" xmlns="http://www.w3.org/2000/svg">
<path fill-rule="evenodd" clip-rule="evenodd" d="M71.4327 29.8795L76.889 33.4784C83.0309 37.5294 82.654 47.1608 76.2003 51.0791L71.6194 53.8605L71.4327 29.8795ZM71.3943 24.9452L79.0266 29.9793C87.6252 35.6507 87.0976 49.1347 78.0624 54.6204L71.6555 58.5103L71.717 66.4056C71.8015 77.2673 60.0232 84.1009 50.6486 78.6291L44.4642 75.0195L36.3161 79.9667C27.281 85.4523 16.2598 78.9802 16.1756 68.1393L16.1004 58.4643L7.1888 53.2628C-1.96796 47.9183 -2.07066 34.7187 7.0016 29.2061L15.8315 23.8407L15.7627 14.9857C15.6735 3.51067 27.7658 -3.83116 36.8674 2.17201L43.88 6.79736L50.0603 3.04193C59.3484 -2.60187 71.2314 4.01354 71.316 14.8752L71.3943 24.9452ZM47.5712 9.23205L52.1337 6.45974C58.768 2.42846 67.2559 7.15374 67.3163 14.9121L67.3737 22.2933L47.5712 9.23205ZM43.6974 11.5859L67.4121 27.2276L67.6382 56.2777L44.4329 70.3667L19.9756 56.0917L19.7429 26.1416L43.6974 11.5859ZM40.0061 9.15125L34.7298 5.67109C28.2287 1.38311 19.5913 6.62729 19.655 14.8237L19.7068 21.4859L40.0061 9.15125ZM15.8676 28.4964L9.07494 32.6239C2.59474 36.5615 2.66811 45.9897 9.20865 49.8073L16.0643 53.8087L15.8676 28.4964ZM20.0118 60.7472L20.0679 67.9773C20.1281 75.7209 28.0004 80.3438 34.454 76.4254L40.5411 72.7297L20.0118 60.7472ZM48.3561 72.6566L52.6684 75.1736C59.3646 79.082 67.7777 74.2008 67.7173 66.4425L67.6744 60.9275L48.3561 72.6566ZM100.559 54.9543V28.9983H105.311V50.1663H126.479V54.9543H100.559ZM133.438 54.9543C132.526 54.9543 131.686 54.7263 130.918 54.2703C130.174 53.8143 129.574 53.2143 129.118 52.4703C128.686 51.7263 128.47 50.8983 128.47 49.9863V34.0743H133.186V49.8063C133.186 49.9263 133.222 50.0343 133.294 50.1303C133.39 50.2023 133.498 50.2383 133.618 50.2383H144.526C144.646 50.2383 144.742 50.2023 144.814 50.1303C144.91 50.0343 144.958 49.9263 144.958 49.8063V34.0743H149.674V49.9863C149.674 50.8983 149.446 51.7263 148.99 52.4703C148.558 53.2143 147.97 53.8143 147.226 54.2703C146.482 54.7263 145.642 54.9543 144.706 54.9543H133.438ZM152.616 54.9543V53.6943L160.284 44.3343L152.616 35.3343V34.0743H157.728L163.344 40.6983L168.96 34.0743H174.072V35.3343L166.404 44.3343L174.072 53.6943V54.9543H168.996L163.344 48.0423L157.728 54.9543H152.616ZM177.974 54.9543V29.0343H201.842V33.8223H182.762V39.5823H198.098V44.4063H182.762V50.1663H201.842V54.9543H177.974ZM210.145 54.9543C209.233 54.9543 208.405 54.7263 207.661 54.2703C206.917 53.8143 206.317 53.2143 205.861 52.4703C205.405 51.7263 205.177 50.8983 205.177 49.9863V49.1943H209.893V49.8063C209.893 49.9263 209.929 50.0343 210.001 50.1303C210.097 50.2023 210.205 50.2383 210.325 50.2383H221.233C221.353 50.2383 221.449 50.2023 221.521 50.1303C221.617 50.0343 221.665 49.9263 221.665 49.8063V47.3223C221.665 47.2023 221.617 47.1063 221.521 47.0343C221.449 46.9383 221.353 46.8903 221.233 46.8903H210.145C209.233 46.8903 208.405 46.6623 207.661 46.2063C206.917 45.7503 206.317 45.1503 205.861 44.4063C205.405 43.6623 205.177 42.8343 205.177 41.9223V39.0423C205.177 38.1303 205.405 37.3023 205.861 36.5583C206.317 35.8143 206.917 35.2143 207.661 34.7583C208.405 34.3023 209.233 34.0743 210.145 34.0743H221.413C222.349 34.0743 223.189 34.3023 223.933 34.7583C224.677 35.2143 225.277 35.8143 225.733 36.5583C226.189 37.3023 226.417 38.1303 226.417 39.0423V39.8343H221.665V39.2223C221.665 39.1023 221.617 39.0063 221.521 38.9343C221.449 38.8383 221.353 38.7903 221.233 38.7903H210.325C210.205 38.7903 210.097 38.8383 210.001 38.9343C209.929 39.0063 209.893 39.1023 209.893 39.2223V41.7063C209.893 41.8263 209.929 41.9343 210.001 42.0303C210.097 42.1023 210.205 42.1383 210.325 42.1383H221.413C222.349 42.1383 223.189 42.3663 223.933 42.8223C224.677 43.2783 225.277 43.8783 225.733 44.6223C226.189 45.3663 226.417 46.1943 226.417 47.1063V49.9863C226.417 50.8983 226.189 51.7263 225.733 52.4703C225.277 53.2143 224.677 53.8143 223.933 54.2703C223.189 54.7263 222.349 54.9543 221.413 54.9543H210.145ZM235.004 54.9543C234.092 54.9543 233.264 54.7263 232.52 54.2703C231.776 53.8143 231.176 53.2143 230.72 52.4703C230.264 51.7263 230.036 50.8983 230.036 49.9863V27.6663H234.752V34.0743H242.888V38.7903H234.752V49.8063C234.752 49.9263 234.788 50.0343 234.86 50.1303C234.956 50.2023 235.064 50.2383 235.184 50.2383H242.888V54.9543H235.004ZM250.718 54.9543C249.806 54.9543 248.978 54.7263 248.234 54.2703C247.49 53.8143 246.89 53.2143 246.434 52.4703C245.978 51.7263 245.75 50.8983 245.75 49.9863V39.0423C245.75 38.1303 245.978 37.3023 246.434 36.5583C246.89 35.8143 247.49 35.2143 248.234 34.7583C248.978 34.3023 249.806 34.0743 250.718 34.0743H261.986C262.898 34.0743 263.726 34.3023 264.47 34.7583C265.238 35.2143 265.838 35.8143 266.27 36.5583C266.726 37.3023 266.954 38.1303 266.954 39.0423V46.8903H250.466V49.8063C250.466 49.9263 250.502 50.0343 250.574 50.1303C250.67 50.2023 250.778 50.2383 250.898 50.2383H266.954V54.9543H250.718ZM250.466 42.6423H262.238V39.2223C262.238 39.1023 262.19 39.0063 262.094 38.9343C262.022 38.8383 261.926 38.7903 261.806 38.7903H250.898C250.778 38.7903 250.67 38.8383 250.574 38.9343C250.502 39.0063 250.466 39.1023 250.466 39.2223V42.6423Z" fill="#20B2D2"/>
</svg>
