<svg width="422" height="114" viewBox="0 0 422 114" fill="none" xmlns="http://www.w3.org/2000/svg">
<path fill-rule="evenodd" clip-rule="evenodd" d="M75.8898 10.4989L70.0796 13.9557L95.4198 28.3546L95.3867 21.3592C95.3393 11.3786 84.5308 5.35786 75.8898 10.4989ZM71.8899 3.63962L62.1367 9.44232L52.1935 3.79238C38.2813 -4.11289 20.9926 5.82364 20.82 21.8241L20.6875 34.1028L10.7038 40.0427C-3.36653 48.4139 -3.27004 68.7612 10.8768 76.5118L20.175 81.606L20.0636 91.9374C19.8883 108.185 37.4394 118.468 51.5267 110.371L61.8494 104.438L72.3952 110.216C86.4295 117.905 103.794 107.413 103.717 91.2904L103.666 80.4046L113.246 74.8983C127.333 66.8017 127.283 46.4602 113.157 38.4329L103.44 32.912L103.385 21.1833C103.308 5.06069 85.8483 -4.66508 71.8899 3.63962ZM28.8195 21.9104L28.7397 29.3121L54.2262 14.1487L48.2412 10.7479C39.6289 5.85417 28.9264 12.0054 28.8195 21.9104ZM62.1692 18.6621L28.6394 38.6108L28.2271 76.8284L61.8155 95.2304L95.6447 75.7873L95.4636 37.5807L62.1692 18.6621ZM14.7038 46.9019L20.5872 43.4015L20.2736 72.4709L14.8109 69.478C6.05331 64.6801 5.9936 52.0841 14.7038 46.9019ZM28.0631 92.0237L28.1285 85.9635L53.63 99.935L47.5403 103.435C38.8196 108.447 27.9546 102.082 28.0631 92.0237ZM76.3293 103.182L70.0349 99.7336L95.6884 84.9895L95.7191 91.4663C95.7664 101.447 85.0172 107.942 76.3293 103.182ZM109.26 67.9622L103.622 71.2025L103.484 42.1382L109.204 45.3885C117.949 50.3577 117.98 62.9501 109.26 67.9622ZM140.045 39.4545V86H169.841V77.8864H149.886V39.4545H140.045ZM198.563 51.0909V71.1364C198.578 72.697 198.267 74.0076 197.631 75.0682C197.01 76.1288 196.191 76.9318 195.176 77.4773C194.161 78.0076 193.07 78.2727 191.903 78.2727C190.07 78.2727 188.608 77.6742 187.517 76.4773C186.426 75.2803 185.873 73.6515 185.858 71.5909V51.0909H176.176V73.3182C176.191 76.0455 176.691 78.3864 177.676 80.3409C178.676 82.2955 180.063 83.803 181.835 84.8636C183.608 85.9242 185.661 86.4545 187.994 86.4545C190.616 86.4545 192.835 85.8333 194.653 84.5909C196.487 83.3485 197.797 81.7045 198.585 79.6591H198.949V86H208.244V51.0909H198.563ZM230.489 63.2955L224.08 51.0909H214.08L224.08 68.5455L213.716 86H223.716L230.489 73.9318L237.375 86H247.261L236.875 68.5455L246.989 51.0909H237.057L230.489 63.2955ZM258.125 84.5C260.716 85.9545 263.807 86.6818 267.398 86.6818C270.277 86.6818 272.814 86.2424 275.011 85.3636C277.224 84.4697 279.027 83.2273 280.42 81.6364C281.83 80.0303 282.761 78.1515 283.216 76L274.261 75.4091C273.928 76.2879 273.443 77.0303 272.807 77.6364C272.17 78.2424 271.405 78.697 270.511 79C269.617 79.303 268.633 79.4545 267.557 79.4545C265.936 79.4545 264.534 79.1136 263.352 78.4318C262.17 77.75 261.254 76.7803 260.602 75.5227C259.966 74.2652 259.648 72.7727 259.648 71.0455V71.0227H283.42V68.3636C283.42 65.3939 283.004 62.803 282.17 60.5909C281.337 58.3636 280.17 56.5151 278.67 55.0455C277.186 53.5758 275.443 52.4773 273.443 51.75C271.458 51.0076 269.314 50.6364 267.011 50.6364C263.587 50.6364 260.602 51.3939 258.057 52.9091C255.527 54.4242 253.564 56.5379 252.17 59.25C250.777 61.9621 250.08 65.1136 250.08 68.7045C250.08 72.3864 250.777 75.5758 252.17 78.2727C253.564 80.9545 255.549 83.0303 258.125 84.5ZM259.657 65.0227C259.715 63.7692 260.038 62.6252 260.625 61.5909C261.261 60.4545 262.14 59.553 263.261 58.8864C264.398 58.2045 265.701 57.8636 267.17 57.8636C268.58 57.8636 269.814 58.1742 270.875 58.7955C271.951 59.4015 272.792 60.2424 273.398 61.3182C274.004 62.3939 274.307 63.6288 274.307 65.0227H259.657ZM309.92 61.5909L318.784 61.0455C318.36 57.8333 316.875 55.2955 314.33 53.4318C311.799 51.5682 308.33 50.6364 303.92 50.6364C300.936 50.6364 298.33 51.0758 296.102 51.9545C293.89 52.8333 292.17 54.0833 290.943 55.7045C289.731 57.3258 289.125 59.2576 289.125 61.5C289.125 64.1061 289.951 66.25 291.602 67.9318C293.269 69.6136 295.807 70.7955 299.216 71.4773L305.261 72.6818C306.777 72.9848 307.898 73.4242 308.625 74C309.352 74.5606 309.724 75.2803 309.739 76.1591C309.724 77.2045 309.193 78.0606 308.148 78.7273C307.117 79.3788 305.754 79.7045 304.057 79.7045C302.33 79.7045 300.913 79.3409 299.807 78.6136C298.701 77.8712 298.004 76.7955 297.716 75.3864L288.193 75.8864C288.663 79.2197 290.261 81.8561 292.989 83.7955C295.731 85.7197 299.413 86.6818 304.034 86.6818C307.064 86.6818 309.739 86.2045 312.057 85.25C314.39 84.2803 316.224 82.9318 317.557 81.2045C318.905 79.4773 319.58 77.4697 319.58 75.1818C319.58 72.6667 318.746 70.6364 317.08 69.0909C315.413 67.5454 312.883 66.4242 309.489 65.7273L303.17 64.4545C301.549 64.1061 300.405 63.6439 299.739 63.0682C299.072 62.4924 298.739 61.7879 298.739 60.9545C298.739 59.9091 299.254 59.0758 300.284 58.4545C301.314 57.8182 302.58 57.5 304.08 57.5C305.201 57.5 306.163 57.6894 306.966 58.0682C307.784 58.4318 308.443 58.9242 308.943 59.5455C309.443 60.1515 309.769 60.8333 309.92 61.5909ZM348.063 51.0909V71.1364C348.078 72.697 347.767 74.0076 347.131 75.0682C346.509 76.1288 345.691 76.9318 344.676 77.4773C343.661 78.0076 342.57 78.2727 341.403 78.2727C339.57 78.2727 338.108 77.6742 337.017 76.4773C335.926 75.2803 335.373 73.6515 335.358 71.5909V51.0909H325.676V73.3182C325.691 76.0455 326.191 78.3864 327.176 80.3409C328.176 82.2955 329.563 83.803 331.335 84.8636C333.108 85.9242 335.161 86.4545 337.494 86.4545C340.116 86.4545 342.335 85.8333 344.153 84.5909C345.987 83.3485 347.297 81.7045 348.085 79.6591H348.449V86H357.744V51.0909H348.063ZM374.875 51.0909H365.489V86H375.17V66.25C375.17 64.8258 375.489 63.5682 376.125 62.4773C376.777 61.3864 377.655 60.5379 378.761 59.9318C379.883 59.3106 381.155 59 382.58 59C383.246 59 383.981 59.053 384.784 59.1591C385.587 59.2651 386.216 59.3864 386.67 59.5227V50.9318C386.246 50.8258 385.754 50.7424 385.193 50.6818C384.633 50.6212 384.11 50.5909 383.625 50.5909C381.67 50.5909 379.943 51.1515 378.443 52.2727C376.943 53.3788 375.875 55.0151 375.239 57.1818H374.875V51.0909ZM396.688 84.5C399.278 85.9545 402.369 86.6818 405.96 86.6818C408.839 86.6818 411.377 86.2424 413.574 85.3636C415.786 84.4697 417.589 83.2273 418.983 81.6364C420.392 80.0303 421.324 78.1515 421.778 76L412.824 75.4091C412.491 76.2879 412.006 77.0303 411.369 77.6364C410.733 78.2424 409.968 78.697 409.074 79C408.18 79.303 407.195 79.4545 406.119 79.4545C404.498 79.4545 403.097 79.1136 401.915 78.4318C400.733 77.75 399.816 76.7803 399.165 75.5227C398.528 74.2652 398.21 72.7727 398.21 71.0455V71.0227H421.983V68.3636C421.983 65.3939 421.566 62.803 420.733 60.5909C419.9 58.3636 418.733 56.5151 417.233 55.0455C415.748 53.5758 414.006 52.4773 412.006 51.75C410.021 51.0076 407.877 50.6364 405.574 50.6364C402.15 50.6364 399.165 51.3939 396.619 52.9091C394.089 54.4242 392.127 56.5379 390.733 59.25C389.339 61.9621 388.642 65.1136 388.642 68.7045C388.642 72.3864 389.339 75.5758 390.733 78.2727C392.127 80.9545 394.112 83.0303 396.688 84.5ZM398.219 65.0227C398.278 63.7692 398.6 62.6252 399.188 61.5909C399.824 60.4545 400.703 59.553 401.824 58.8864C402.96 58.2045 404.263 57.8636 405.733 57.8636C407.142 57.8636 408.377 58.1742 409.438 58.7955C410.513 59.4015 411.354 60.2424 411.96 61.3182C412.566 62.3939 412.869 63.6288 412.869 65.0227H398.219Z" fill="#1BA5C3"/>
</svg>
