<svg width="89" height="87" viewBox="0 0 89 87" fill="none" xmlns="http://www.w3.org/2000/svg">
<path fill-rule="evenodd" clip-rule="evenodd" d="M73.1739 32.8522L78.6302 36.4511C84.772 40.5021 84.3952 50.1335 77.9415 54.0518L73.3605 56.8332L73.1739 32.8522ZM73.1355 27.9179L80.7678 32.952C89.3663 38.6234 88.8387 52.1074 79.8036 57.5931L73.3967 61.483L73.4581 69.3783C73.5426 80.24 61.7643 87.0736 52.3897 81.6019L46.2054 77.9922L38.0573 82.9394C29.0222 88.425 18.001 81.9529 17.9168 71.112L17.8416 61.4371L8.92991 56.2355C-0.226841 50.891 -0.329549 37.6914 8.74271 32.1788L17.5726 26.8134L17.5038 17.9584C17.4147 6.48338 29.507 -0.858449 38.6085 5.14472L45.6211 9.77005L51.8014 6.01464C61.0895 0.370837 72.9725 6.98624 73.0571 17.8479L73.1355 27.9179ZM49.3124 12.2047L53.8748 9.43245C60.5091 5.40117 68.997 10.1264 69.0574 17.8848L69.1148 25.266L49.3124 12.2047ZM45.4386 14.5586L69.1532 30.2003L69.3793 59.2504L46.1741 73.3395L21.7168 59.0644L21.4841 29.1143L45.4386 14.5586ZM41.7473 12.1239L36.471 8.6438C29.9699 4.35582 21.3325 9.6 21.3962 17.7964L21.4479 24.4586L41.7473 12.1239ZM17.6088 31.4691L10.8161 35.5966C4.33586 39.5342 4.40923 48.9624 10.9498 52.78L17.8054 56.7815L17.6088 31.4691ZM21.7529 63.72L21.8091 70.95C21.8693 78.6936 29.7415 83.3165 36.1952 79.3981L42.2822 75.7024L21.7529 63.72ZM50.0972 75.6293L54.4095 78.1463C61.1057 82.0547 69.5188 77.1735 69.4584 69.4152L69.4155 63.9002L50.0972 75.6293Z" fill="#20B2D2"/>
<path d="M78.6302 36.4511L79.7314 34.7816L79.7314 34.7816L78.6302 36.4511ZM73.1739 32.8522L74.275 31.1827L71.1447 29.118L71.1739 32.8678L73.1739 32.8522ZM77.9415 54.0518L76.9035 52.3423L76.9035 52.3423L77.9415 54.0518ZM73.3605 56.8332L71.3605 56.8488L71.388 60.3706L74.3984 58.5428L73.3605 56.8332ZM80.7678 32.952L79.6666 34.6216L79.6666 34.6216L80.7678 32.952ZM73.1355 27.9179L71.1355 27.9335L71.1438 29.0001L72.0343 29.5874L73.1355 27.9179ZM79.8036 57.5931L78.7656 55.8835L78.7656 55.8835L79.8036 57.5931ZM73.3967 61.483L72.3587 59.7735L71.3879 60.3629L71.3967 61.4986L73.3967 61.483ZM73.4581 69.3783L71.4582 69.3939L71.4582 69.3939L73.4581 69.3783ZM52.3897 81.6019L51.3815 83.3292L51.3815 83.3292L52.3897 81.6019ZM46.2054 77.9922L47.2136 76.2649L46.1852 75.6647L45.1674 76.2827L46.2054 77.9922ZM38.0573 82.9394L39.0953 84.6489L39.0953 84.6489L38.0573 82.9394ZM17.9168 71.112L19.9167 71.0965L19.9167 71.0965L17.9168 71.112ZM17.8416 61.4371L19.8415 61.4215L19.8327 60.2835L18.8498 59.7097L17.8416 61.4371ZM8.92991 56.2355L7.92173 57.9628L7.92173 57.9628L8.92991 56.2355ZM8.74271 32.1788L7.70414 30.4696L7.70414 30.4696L8.74271 32.1788ZM17.5726 26.8134L18.6112 28.5226L19.5814 27.9331L19.5726 26.7978L17.5726 26.8134ZM17.5038 17.9584L15.5039 17.9739L15.5039 17.974L17.5038 17.9584ZM38.6085 5.14472L37.5073 6.81426L37.5074 6.81426L38.6085 5.14472ZM45.6211 9.77005L44.5199 11.4396L45.5772 12.137L46.6597 11.4792L45.6211 9.77005ZM51.8014 6.01464L52.84 7.72384L52.84 7.72384L51.8014 6.01464ZM73.0571 17.8479L75.057 17.8323L75.057 17.8323L73.0571 17.8479ZM53.8748 9.43245L52.8362 7.72325L52.8362 7.72325L53.8748 9.43245ZM49.3124 12.2047L48.2738 10.4955L45.575 12.1355L48.2112 13.8743L49.3124 12.2047ZM69.0574 17.8848L71.0573 17.8692L71.0573 17.8692L69.0574 17.8848ZM69.1148 25.266L68.0136 26.9355L71.1439 29.0002L71.1148 25.2504L69.1148 25.266ZM69.1532 30.2003L71.1532 30.1847L71.1449 29.1181L70.2544 28.5307L69.1532 30.2003ZM45.4386 14.5586L46.5398 12.8891L45.4824 12.1917L44.4 12.8494L45.4386 14.5586ZM69.3793 59.2504L70.4173 60.96L71.3881 60.3705L71.3792 59.2348L69.3793 59.2504ZM46.1741 73.3395L45.1659 75.0668L46.1942 75.667L47.212 75.049L46.1741 73.3395ZM21.7168 59.0644L19.7168 59.0799L19.7257 60.218L20.7086 60.7917L21.7168 59.0644ZM21.4841 29.1143L20.4455 27.4051L19.4753 27.9946L19.4842 29.1298L21.4841 29.1143ZM41.7473 12.1239L42.7859 13.8331L45.4847 12.1932L42.8485 10.4544L41.7473 12.1239ZM36.471 8.6438L35.3698 10.3133L35.3698 10.3133L36.471 8.6438ZM21.3962 17.7964L23.3961 17.7809L23.3961 17.7809L21.3962 17.7964ZM21.4479 24.4586L19.448 24.4741L19.4754 27.9975L22.4865 26.1678L21.4479 24.4586ZM17.6088 31.4691L19.6087 31.4535L19.5814 27.9302L16.5702 29.7599L17.6088 31.4691ZM10.8161 35.5966L11.8546 37.3058L11.8546 37.3058L10.8161 35.5966ZM10.9498 52.78L11.9579 51.0527L11.9579 51.0527L10.9498 52.78ZM17.8054 56.7815L16.7973 58.5088L19.8327 60.2805L19.8054 56.7659L17.8054 56.7815ZM21.7529 63.72L22.7611 61.9927L19.7257 60.221L19.753 63.7355L21.7529 63.72ZM21.8091 70.95L23.809 70.9345L23.809 70.9345L21.8091 70.95ZM36.1952 79.3981L35.1572 77.6886L35.1572 77.6886L36.1952 79.3981ZM42.2822 75.7024L43.3202 77.412L46.1917 75.6685L43.2904 73.9751L42.2822 75.7024ZM50.0972 75.6293L49.0592 73.9198L46.1877 75.6632L49.089 77.3566L50.0972 75.6293ZM54.4095 78.1463L53.4014 79.8736L53.4014 79.8736L54.4095 78.1463ZM69.4584 69.4152L67.4585 69.4308L67.4585 69.4308L69.4584 69.4152ZM69.4155 63.9002L71.4154 63.8847L71.388 60.3628L68.3775 62.1907L69.4155 63.9002ZM79.7314 34.7816L74.275 31.1827L72.0727 34.5217L77.529 38.1206L79.7314 34.7816ZM78.9795 55.7614C86.6004 51.1343 87.183 39.6965 79.7314 34.7816L77.529 38.1206C82.3611 41.3078 82.1899 49.1327 76.9035 52.3423L78.9795 55.7614ZM74.3984 58.5428L78.9795 55.7614L76.9035 52.3423L72.3225 55.1237L74.3984 58.5428ZM75.3604 56.8177L75.1738 32.8366L71.1739 32.8678L71.3605 56.8488L75.3604 56.8177ZM81.869 31.2825L74.2366 26.2484L72.0343 29.5874L79.6666 34.6216L81.869 31.2825ZM80.8416 59.3026C91.044 53.1082 91.7773 37.8178 81.869 31.2825L79.6666 34.6216C86.9554 39.4291 86.6335 51.1065 78.7656 55.8835L80.8416 59.3026ZM74.4346 63.1926L80.8416 59.3026L78.7656 55.8835L72.3587 59.7735L74.4346 63.1926ZM75.458 69.3627L75.3966 61.4675L71.3967 61.4986L71.4582 69.3939L75.458 69.3627ZM51.3815 83.3292C62.0982 89.5842 75.5546 81.7719 75.458 69.3627L71.4582 69.3939C71.5307 78.708 61.4304 84.5629 53.3979 79.8746L51.3815 83.3292ZM45.1972 79.7195L51.3815 83.3292L53.3979 79.8746L47.2136 76.2649L45.1972 79.7195ZM39.0953 84.6489L47.2434 79.7018L45.1674 76.2827L37.0193 81.2298L39.0953 84.6489ZM15.9168 71.1276C16.0122 83.3996 28.6309 91.0023 39.0953 84.6489L37.0193 81.2298C29.4134 85.8477 19.9898 80.5063 19.9167 71.0965L15.9168 71.1276ZM15.8417 61.4526L15.9168 71.1276L19.9167 71.0965L19.8415 61.4215L15.8417 61.4526ZM7.92173 57.9628L16.8334 63.1644L18.8498 59.7097L9.9381 54.5082L7.92173 57.9628ZM7.70414 30.4696C-2.65859 36.7664 -2.54872 51.8515 7.92173 57.9628L9.9381 54.5082C2.09504 49.9305 1.99949 38.6165 9.78129 33.888L7.70414 30.4696ZM16.5341 25.1042L7.70414 30.4696L9.78129 33.888L18.6112 28.5226L16.5341 25.1042ZM15.5039 17.974L15.5727 26.8289L19.5726 26.7978L19.5038 17.9429L15.5039 17.974ZM39.7097 3.47517C29.0489 -3.55646 15.4045 5.17387 15.5039 17.9739L19.5038 17.9429C19.4249 7.79289 29.9651 1.83956 37.5073 6.81426L39.7097 3.47517ZM46.7223 8.10051L39.7097 3.47517L37.5074 6.81426L44.5199 11.4396L46.7223 8.10051ZM50.7629 4.30544L44.5825 8.06085L46.6597 11.4792L52.84 7.72384L50.7629 4.30544ZM75.057 17.8323C74.9604 5.41529 61.3755 -2.14318 50.7629 4.30544L52.84 7.72384C60.8036 2.88485 70.9847 8.55719 71.0571 17.8635L75.057 17.8323ZM75.1354 27.9023L75.057 17.8323L71.0571 17.8635L71.1355 27.9335L75.1354 27.9023ZM52.8362 7.72325L48.2738 10.4955L50.351 13.9139L54.9134 11.1416L52.8362 7.72325ZM71.0573 17.8692C70.9848 8.55549 60.7951 2.88715 52.8362 7.72325L54.9134 11.1416C60.2232 7.91518 67.0092 11.6974 67.0574 17.9003L71.0573 17.8692ZM71.1148 25.2504L71.0573 17.8692L67.0574 17.9003L67.1149 25.2815L71.1148 25.2504ZM70.216 23.5964L50.4136 10.5352L48.2112 13.8743L68.0136 26.9355L70.216 23.5964ZM70.2544 28.5307L46.5398 12.8891L44.3374 16.2282L68.052 31.8698L70.2544 28.5307ZM71.3792 59.2348L71.1532 30.1847L67.1533 30.2159L67.3794 59.266L71.3792 59.2348ZM47.212 75.049L70.4173 60.96L68.3413 57.5408L45.1361 71.6299L47.212 75.049ZM20.7086 60.7917L45.1659 75.0668L47.1822 71.6122L22.725 57.3371L20.7086 60.7917ZM19.4842 29.1298L19.7168 59.0799L23.7167 59.0489L23.484 29.0987L19.4842 29.1298ZM44.4 12.8494L20.4455 27.4051L22.5227 30.8235L46.4771 16.2678L44.4 12.8494ZM42.8485 10.4544L37.5722 6.97426L35.3698 10.3133L40.6461 13.7935L42.8485 10.4544ZM37.5722 6.97426C29.5118 1.65781 19.3223 8.29049 19.3962 17.812L23.3961 17.7809C23.3427 10.9095 30.428 7.05383 35.3698 10.3133L37.5722 6.97426ZM19.3962 17.812L19.448 24.4741L23.4479 24.4431L23.3961 17.7809L19.3962 17.812ZM40.7087 10.4147L20.4094 22.7494L22.4865 26.1678L42.7859 13.8331L40.7087 10.4147ZM16.5702 29.7599L9.77748 33.8874L11.8546 37.3058L18.6474 33.1783L16.5702 29.7599ZM9.77748 33.8874C2.00682 38.6091 2.08735 49.923 9.94158 54.5073L11.9579 51.0527C6.73111 48.0019 6.6649 40.4593 11.8546 37.3058L9.77748 33.8874ZM9.94158 54.5073L16.7973 58.5088L18.8136 55.0542L11.9579 51.0527L9.94158 54.5073ZM15.6089 31.4846L15.8055 56.797L19.8054 56.7659L19.6087 31.4535L15.6089 31.4846ZM19.753 63.7355L19.8092 70.9656L23.809 70.9345L23.7529 63.7045L19.753 63.7355ZM19.8092 70.9656C19.8804 80.1402 29.3503 85.8938 37.2332 81.1077L35.1572 77.6886C30.1328 80.7392 23.8581 77.2469 23.809 70.9345L19.8092 70.9656ZM37.2332 81.1077L43.3202 77.412L41.2443 73.9928L35.1572 77.6886L37.2332 81.1077ZM20.7448 65.4473L41.2741 77.4297L43.2904 73.9751L22.7611 61.9927L20.7448 65.4473ZM49.089 77.3566L53.4014 79.8736L55.4177 76.419L51.1054 73.902L49.089 77.3566ZM53.4014 79.8736C61.4396 84.5653 71.5308 78.7054 71.4583 69.3996L67.4585 69.4308C67.5068 75.6416 60.7718 79.544 55.4177 76.419L53.4014 79.8736ZM71.4583 69.3996L71.4154 63.8847L67.4156 63.9158L67.4585 69.4308L71.4583 69.3996ZM51.1352 77.3389L70.4535 65.6098L68.3775 62.1907L49.0592 73.9198L51.1352 77.3389Z" fill="#20B2D2"/>
</svg>
